<?xml version="1.0" standalone="no"?><!DOCTYPE svg PUBLIC "-//W3C//DTD SVG 1.1//EN" "http://www.w3.org/Graphics/SVG/1.1/DTD/svg11.dtd"><svg width="20" height="20" viewBox="0 0 20 20" version="1.1" xmlns="http://www.w3.org/2000/svg" xmlns:xlink="http://www.w3.org/1999/xlink"><defs><style type="text/css"><![CDATA[
@font-face { font-family: ifont; src: url("//at.alicdn.com/t/font_1442373896_4754455.eot?#iefix") format("embedded-opentype"), url("//at.alicdn.com/t/font_1442373896_4754455.woff") format("woff"), url("//at.alicdn.com/t/font_1442373896_4754455.ttf") format("truetype"), url("//at.alicdn.com/t/font_1442373896_4754455.svg#ifont") format("svg"); }

]]></style></defs><g class="transform-group"><g transform="scale(0.01953125, 0.01953125)"><path d="M481.109333 0 543.1296 0C591.223467 9.216 640.750933 21.8112 680.686933 51.541333 735.573333 88.746667 777.591467 147.626667 783.837867 214.869333 789.230933 278.8352 786.432 343.176533 786.8416 407.278933 812.817067 410.760533 841.0112 407.790933 864.9728 420.420267 895.863467 433.595733 916.002133 464.657067 923.306667 496.605867L923.306667 937.1648C914.0224 980.104533 879.581867 1015.6032 836.3008 1024L187.528533 1024C144.5888 1014.749867 109.090133 980.2752 100.693333 936.994133L100.693333 496.605867C107.963733 464.657067 128.136533 433.595733 159.0272 420.386133 182.954667 407.688533 211.182933 410.999467 237.1584 407.825067 240.196267 327.611733 227.4304 244.974933 250.1632 166.741333 285.7984 71.406933 382.737067 11.434667 481.109333 0M485.888 121.9584C425.540267 130.423467 362.8032 174.216533 357.2736 238.8992 354.781867 295.765333 357.376 352.699733 356.7616 409.565867 460.253867 409.668267 563.746133 409.634133 667.2384 409.6 666.794667 356.1472 668.945067 302.626133 666.692267 249.207467 665.4976 232.277333 664.2688 214.3232 655.837867 199.202133 622.2848 141.960533 551.048533 109.8752 485.888 121.9584M449.1264 580.642133C403.1488 606.856533 380.7232 666.385067 397.824 716.526933 404.411733 748.612267 433.9712 766.532267 455.8848 787.899733 466.5344 815.786667 452.539733 855.8592 480.529067 876.1344 503.5008 896.682667 544.8704 887.842133 557.1584 859.204267 565.691733 836.1984 564.292267 810.871467 567.0912 786.8416 590.9504 772.744533 610.9184 752.059733 622.626133 726.766933 639.214933 688.0256 632.7296 640.375467 605.764267 607.778133 569.856 561.527467 498.449067 549.137067 449.1264 580.642133Z" fill="#fff"></path></g></g></svg>