<?xml version="1.0" standalone="no"?><!DOCTYPE svg PUBLIC "-//W3C//DTD SVG 1.1//EN" "http://www.w3.org/Graphics/SVG/1.1/DTD/svg11.dtd"><svg width="32" height="32" viewBox="0 0 32 32" version="1.1" xmlns="http://www.w3.org/2000/svg" xmlns:xlink="http://www.w3.org/1999/xlink"><defs><style type="text/css"><![CDATA[
@font-face { font-family: ifont; src: url("//at.alicdn.com/t/font_1442373896_4754455.eot?#iefix") format("embedded-opentype"), url("//at.alicdn.com/t/font_1442373896_4754455.woff") format("woff"), url("//at.alicdn.com/t/font_1442373896_4754455.ttf") format("truetype"), url("//at.alicdn.com/t/font_1442373896_4754455.svg#ifont") format("svg"); }

]]></style></defs><g class="transform-group"><g transform="scale(0.03125, 0.03125)"><path d="M671.587672 587.912947l-33.867342 0-12.697183-10.580986c40.212864-48.680722 65.611324-110.058628 65.611324-179.90337 0-152.388712-122.759905-275.148617-275.148617-275.148617S142.456502 245.040902 142.456502 397.428591s122.759905 275.148617 275.147594 275.148617c67.728544 0 131.22367-25.39846 179.904393-65.611324l12.697183 10.579963 0 33.867342 211.653491 211.648374 63.494103-63.495126L671.587672 587.912947 671.587672 587.912947zM417.604096 587.912947c-105.824187 0-190.488449-84.660168-190.488449-190.484356s84.663238-190.489472 190.488449-190.489472c105.824187 0 190.484356 84.665285 190.484356 190.489472S523.428284 587.912947 417.604096 587.912947L417.604096 587.912947zM417.604096 587.912947" fill="#272636"></path></g></g></svg>